REM DIRINDEX 1\2,1\3,1\4,1\5,1\6
REM DIRNAME folder01,folder02,folder03,folder04,folder05,folder06
TITLE ""
FILE "DISC4Track24.mp3" MP3
  TRACK 01 AUDIO
    TITLE "0:"
    INDEX 01 00:00:00
  TRACK 02 AUDIO
    TITLE "3:cjc129_3563"
    INDEX 01 00:00:05
  TRACK 03 AUDIO
    TITLE "0:"
    INDEX 01 00:01:34
  TRACK 04 AUDIO
    TITLE "5:cjc129_3564"
    INDEX 01 00:03:08
  TRACK 05 AUDIO
    TITLE "0:"
    INDEX 01 00:04:46
  TRACK 06 AUDIO
    TITLE "4:cjc129_3565"
    INDEX 01 00:05:36
  TRACK 07 AUDIO
    TITLE "0:"
    INDEX 01 00:06:63
  TRACK 08 AUDIO
    TITLE "6:cjc129_3566"
    INDEX 01 00:07:21
  TRACK 09 AUDIO
    TITLE "0:"
    INDEX 01 00:11:42
  TRACK 10 AUDIO
    TITLE "3:cjc129_3567"
    INDEX 01 00:13:18
  TRACK 11 AUDIO
    TITLE "0:"
    INDEX 01 00:14:45
  TRACK 12 AUDIO
    TITLE "5:cjc129_3568"
    INDEX 01 00:16:02
  TRACK 13 AUDIO
    TITLE "0:"
    INDEX 01 00:18:09
  TRACK 14 AUDIO
    TITLE "4:cjc129_3569"
    INDEX 01 00:19:01
  TRACK 15 AUDIO
    TITLE "0:"
    INDEX 01 00:20:30
  TRACK 16 AUDIO
    TITLE "6:cjc129_3570"
    INDEX 01 00:20:59
  TRACK 17 AUDIO
    TITLE "0:"
    INDEX 01 00:25:70
  TRACK 18 AUDIO
    TITLE "3:cjc129_3571"
    INDEX 01 00:28:15
  TRACK 19 AUDIO
    TITLE "0:"
    INDEX 01 00:34:04
  TRACK 20 AUDIO
    TITLE "5:cjc129_3572"
    INDEX 01 00:34:34
  TRACK 21 AUDIO
    TITLE "0:"
    INDEX 01 00:36:54
  TRACK 22 AUDIO
    TITLE "4:cjc129_3573"
    INDEX 01 00:37:48
  TRACK 23 AUDIO
    TITLE "0:"
    INDEX 01 00:43:33
  TRACK 24 AUDIO
    TITLE "6:cjc129_3574"
    INDEX 01 00:43:66
  TRACK 25 AUDIO
    TITLE "0:"
    INDEX 01 00:48:36
  TRACK 26 AUDIO
    TITLE "3:cjc129_3575"
    INDEX 01 00:50:15
  TRACK 27 AUDIO
    TITLE "0:"
    INDEX 01 00:53:39
  TRACK 28 AUDIO
    TITLE "5:cjc129_3576"
    INDEX 01 00:53:70
  TRACK 29 AUDIO
    TITLE "0:"
    INDEX 01 01:01:01
  TRACK 30 AUDIO
    TITLE "4:cjc129_3577"
    INDEX 01 01:01:64
  TRACK 31 AUDIO
    TITLE "0:"
    INDEX 01 01:05:15
  TRACK 32 AUDIO
    TITLE "6:cjc129_3578"
    INDEX 01 01:05:44
  TRACK 33 AUDIO
    TITLE "0:"
    INDEX 01 01:10:57
  TRACK 34 AUDIO
    TITLE "3:cjc129_3579"
    INDEX 01 01:12:32
  TRACK 35 AUDIO
    TITLE "0:"
    INDEX 01 01:13:55
  TRACK 36 AUDIO
    TITLE "5:cjc129_3580"
    INDEX 01 01:15:29
  TRACK 37 AUDIO
    TITLE "0:"
    INDEX 01 01:17:12
  TRACK 38 AUDIO
    TITLE "4:cjc129_3581"
    INDEX 01 01:18:02
  TRACK 39 AUDIO
    TITLE "0:"
    INDEX 01 01:19:27
  TRACK 40 AUDIO
    TITLE "6:cjc129_3582"
    INDEX 01 01:19:54
  TRACK 41 AUDIO
    TITLE "0:"
    INDEX 01 01:25:25
  TRACK 42 AUDIO
    TITLE "3:cjc129_3583"
    INDEX 01 01:27:01
  TRACK 43 AUDIO
    TITLE "0:"
    INDEX 01 01:28:24
  TRACK 44 AUDIO
    TITLE "5:cjc129_3584"
    INDEX 01 01:29:54
  TRACK 45 AUDIO
    TITLE "0:"
    INDEX 01 01:34:06
  TRACK 46 AUDIO
    TITLE "4:cjc129_3585"
    INDEX 01 01:34:71
  TRACK 47 AUDIO
    TITLE "0:"
    INDEX 01 01:36:21
  TRACK 48 AUDIO
    TITLE "6:cjc129_3586"
    INDEX 01 01:36:50
  TRACK 49 AUDIO
    TITLE "0:"
    INDEX 01 01:41:09
  TRACK 50 AUDIO
    TITLE "3:cjc129_3587"
    INDEX 01 01:42:57
  TRACK 51 AUDIO
    TITLE "0:"
    INDEX 01 01:45:57
  TRACK 52 AUDIO
    TITLE "5:cjc129_3588"
    INDEX 01 01:46:16
  TRACK 53 AUDIO
    TITLE "0:"
    INDEX 01 01:48:09
  TRACK 54 AUDIO
    TITLE "4:cjc129_3589"
    INDEX 01 01:48:73
  TRACK 55 AUDIO
    TITLE "0:"
    INDEX 01 01:52:02
  TRACK 56 AUDIO
    TITLE "6:cjc129_3590"
    INDEX 01 01:52:32
  TRACK 57 AUDIO
    TITLE "0:"
    INDEX 01 01:56:36
  TRACK 58 AUDIO
    TITLE "3:cjc129_3591"
    INDEX 01 01:58:09
  TRACK 59 AUDIO
    TITLE "0:"
    INDEX 01 01:59:12
  TRACK 60 AUDIO
    TITLE "5:cjc129_3592"
    INDEX 01 01:59:50
  TRACK 61 AUDIO
    TITLE "0:"
    INDEX 01 02:02:48
  TRACK 62 AUDIO
    TITLE "4:cjc129_3593"
    INDEX 01 02:03:39
  TRACK 63 AUDIO
    TITLE "0:"
    INDEX 01 02:04:39
  TRACK 64 AUDIO
    TITLE "6:cjc129_3594"
    INDEX 01 02:04:72
  TRACK 65 AUDIO
    TITLE "0:"
    INDEX 01 02:10:18
